<svg width="81" height="72" viewBox="0 0 81 72" fill="none" xmlns="http://www.w3.org/2000/svg">
<mask id="mask0" mask-type="alpha" maskUnits="userSpaceOnUse" x="0" y="3" width="81" height="63">
<path d="M6.17188 26.2656L6.35938 25.4219C7.45312 25.2135 8.18229 24.974 8.54688 24.7031C8.92188 24.4323 9.25521 23.9531 9.54688 23.2656C9.84896 22.5677 10.2552 21.1354 10.7656 18.9688C11.4427 16.1042 12.0573 14.0417 12.6094 12.7812C13.4531 10.8854 14.5 9.47917 15.75 8.5625C17.0104 7.64583 18.2812 7.1875 19.5625 7.1875C20.3854 7.1875 21.0781 7.39583 21.6406 7.8125C22.2031 8.22917 22.4844 8.66146 22.4844 9.10938C22.4844 9.35938 22.3958 9.57292 22.2188 9.75C22.0521 9.92708 21.849 10.0156 21.6094 10.0156C21.2969 10.0156 20.9167 9.8125 20.4688 9.40625C19.9688 8.96875 19.5781 8.68229 19.2969 8.54688C19.026 8.41146 18.7604 8.34375 18.5 8.34375C18.1979 8.34375 17.901 8.42708 17.6094 8.59375C17.2031 8.82292 16.7656 9.26042 16.2969 9.90625C15.8385 10.5417 15.3594 11.4896 14.8594 12.75C14.5365 13.6042 14.125 15.0104 13.625 16.9688C12.8438 20.0833 12.25 22.151 11.8438 23.1719C11.5521 23.901 11.1979 24.5052 10.7812 24.9844C12.2708 24.651 13.4583 24.4844 14.3438 24.4844C14.8958 24.4844 15.4062 24.5208 15.875 24.5938C16.3438 24.6562 17.1615 24.8229 18.3281 25.0938C19.3385 25.3333 20.0469 25.4531 20.4531 25.4531C20.849 25.4531 21.1823 25.3333 21.4531 25.0938C21.7344 24.8438 21.875 24.5625 21.875 24.25C21.875 24.0521 21.8021 23.776 21.6562 23.4219C21.5208 23.0885 21.4531 22.8229 21.4531 22.625C21.4531 22.3438 21.5365 22.125 21.7031 21.9688C21.8698 21.8021 22.0885 21.7188 22.3594 21.7188C22.6719 21.7188 22.9375 21.8594 23.1562 22.1406C23.375 22.4115 23.4844 22.7865 23.4844 23.2656C23.4844 24.1719 23.1094 24.9531 22.3594 25.6094C21.6094 26.2656 20.5938 26.5938 19.3125 26.5938C18.6771 26.5938 17.8594 26.5469 16.8594 26.4531C13.4844 26.151 11.276 26 10.2344 26C8.70312 26 7.34896 26.0885 6.17188 26.2656ZM36.5781 12.5938L37.6094 12.375L36.4375 16.3281C35.9688 17.901 35.526 19.7135 35.1094 21.7656C34.8802 22.8802 34.7656 23.599 34.7656 23.9219C34.7656 24.2448 34.8958 24.4062 35.1562 24.4062C35.3229 24.4062 35.5885 24.2969 35.9531 24.0781C36.599 23.6927 37.2188 23.2135 37.8125 22.6406L38.3125 23.25C37.125 24.3333 36.3646 24.9896 36.0312 25.2188C35.3646 25.6771 34.7292 26.0156 34.125 26.2344C33.7292 26.3802 33.3438 26.4531 32.9688 26.4531C32.6979 26.4531 32.4948 26.3906 32.3594 26.2656C32.224 26.1406 32.1562 25.9583 32.1562 25.7188C32.1562 25.5625 32.1979 25.349 32.2812 25.0781L32.9062 22.9531C32.0104 24.026 30.9427 24.9479 29.7031 25.7188C28.9427 26.1979 28.2448 26.4375 27.6094 26.4375C27.0052 26.4375 26.5417 26.224 26.2188 25.7969C25.7812 25.224 25.5625 24.474 25.5625 23.5469C25.5625 22.4427 25.8542 21.2135 26.4375 19.8594C27.0312 18.5052 27.8229 17.276 28.8125 16.1719C29.8021 15.0677 30.8438 14.2552 31.9375 13.7344C32.7812 13.3385 33.8646 13.1406 35.1875 13.1406C35.5208 13.1406 35.8594 13.1615 36.2031 13.2031L36.5781 12.5938ZM34.6406 14.9844C34.0781 14.8698 33.6042 14.8125 33.2188 14.8125C32.2812 14.8125 31.4635 15.0729 30.7656 15.5938C30.0677 16.1042 29.4167 17.0312 28.8125 18.375C28.2188 19.7083 27.9219 21.0417 27.9219 22.375C27.9219 23.0833 28.0417 23.5938 28.2812 23.9062C28.5208 24.2188 28.8333 24.375 29.2188 24.375C29.9375 24.375 30.7083 23.9896 31.5312 23.2188C32.3542 22.4375 32.9583 21.3177 33.3438 19.8594L34.6406 14.9844ZM45.8125 13.2969C46.2917 12.9635 46.6562 12.7969 46.9062 12.7969C47.1042 12.7969 47.2656 12.8646 47.3906 13C47.5156 13.125 47.5781 13.2812 47.5781 13.4688C47.5781 13.875 47.2708 14.1562 46.6562 14.3125L45.4531 16.6719C45.151 17.3281 44.9219 17.9844 44.7656 18.6406C44.6198 19.2969 44.5469 19.9688 44.5469 20.6562C44.5469 21.5208 44.7552 22.9062 45.1719 24.8125C46.776 23.75 48.2708 22.3281 49.6562 20.5469C49.6458 20.099 49.6406 19.7708 49.6406 19.5625C49.6406 17.2708 49.9792 15.4635 50.6562 14.1406C51.1042 13.2656 51.599 12.8281 52.1406 12.8281C52.4635 12.8281 52.7292 12.9688 52.9375 13.25C53.1562 13.5208 53.2656 13.9271 53.2656 14.4688C53.2656 14.9062 53.1823 15.4115 53.0156 15.9844C52.7344 16.9219 52.401 17.7812 52.0156 18.5625C52.0156 21.1875 52.2135 23.2708 52.6094 24.8125C53.8594 23.9583 55.0729 22.8854 56.25 21.5938C57.1146 20.6458 57.7708 19.6615 58.2188 18.6406C58.6667 17.6094 58.8906 16.7656 58.8906 16.1094C58.8906 15.7865 58.776 15.3698 58.5469 14.8594C58.2865 14.2656 58.1562 13.8333 58.1562 13.5625C58.1562 13.2917 58.2552 13.0625 58.4531 12.875C58.651 12.6771 58.8906 12.5781 59.1719 12.5781C59.5156 12.5781 59.7865 12.7448 59.9844 13.0781C60.1927 13.401 60.2969 13.9844 60.2969 14.8281C60.2969 16.974 59.3646 19.224 57.5 21.5781C55.6354 23.9323 53.3594 25.75 50.6719 27.0312C50.3385 25.8958 50.0312 24.2083 49.75 21.9688C48.3333 23.3854 47.4531 24.2344 47.1094 24.5156C46.4219 25.0885 45.7552 25.5781 45.1094 25.9844C44.474 26.3802 43.7917 26.7292 43.0625 27.0312C42.9896 26.4375 42.8229 25.4792 42.5625 24.1562C42.1979 22.2917 42.0156 20.9583 42.0156 20.1562C42.0156 19.0729 42.276 18.0104 42.7969 16.9688C43.3281 15.9167 44.1198 14.9948 45.1719 14.2031C43.2865 14.2552 41.9427 14.474 41.1406 14.8594C40.599 15.1198 40.3281 15.4323 40.3281 15.7969C40.3281 15.9323 40.3906 16.151 40.5156 16.4531C40.6302 16.7344 40.6875 16.9427 40.6875 17.0781C40.6875 17.2656 40.6198 17.4271 40.4844 17.5625C40.349 17.6979 40.1771 17.7656 39.9688 17.7656C39.6979 17.7656 39.4688 17.6458 39.2812 17.4062C39.0938 17.1667 39 16.8281 39 16.3906C39 15.5573 39.375 14.8802 40.125 14.3594C41.2083 13.599 43.1042 13.2448 45.8125 13.2969ZM64.9375 11.6562L64.6719 10.6562C65.5469 9.88542 66.1146 9.27083 66.375 8.8125C66.6458 8.34375 66.7812 7.90104 66.7812 7.48438C66.7812 7.25521 66.6562 6.90625 66.4062 6.4375C66.2083 6.0625 66.1094 5.71354 66.1094 5.39062C66.1094 4.96354 66.2344 4.61979 66.4844 4.35938C66.7344 4.08854 67.0521 3.95312 67.4375 3.95312C67.8438 3.95312 68.1823 4.10938 68.4531 4.42188C68.724 4.72396 68.8594 5.125 68.8594 5.625C68.8594 6.5 68.5729 7.41667 68 8.375C67.4375 9.32292 66.4167 10.4167 64.9375 11.6562ZM75.6875 12.8438C76.6146 12.8438 77.3281 13.026 77.8281 13.3906C78.3385 13.7448 78.5938 14.1562 78.5938 14.625C78.5938 14.9062 78.4844 15.151 78.2656 15.3594C78.0573 15.5677 77.8021 15.6719 77.5 15.6719C77.3021 15.6719 77.1302 15.6302 76.9844 15.5469C76.8385 15.4531 76.6302 15.2292 76.3594 14.875C75.849 14.1979 75.3438 13.8594 74.8438 13.8594C74.4167 13.8594 74.0365 14.026 73.7031 14.3594C73.3802 14.6823 73.2188 15.0885 73.2188 15.5781C73.2188 16.0052 73.3229 16.4219 73.5312 16.8281C73.7396 17.224 74.2656 17.8698 75.1094 18.7656C76.2656 19.9948 76.8438 21.1615 76.8438 22.2656C76.8438 23.3698 76.375 24.3385 75.4375 25.1719C74.5 25.9948 73.2917 26.4062 71.8125 26.4062C70.5729 26.4062 69.651 26.1562 69.0469 25.6562C68.4427 25.1458 68.1406 24.5208 68.1406 23.7812C68.1406 23.4167 68.2552 23.1146 68.4844 22.875C68.7135 22.6354 68.9948 22.5156 69.3281 22.5156C69.6198 22.5156 69.8698 22.6146 70.0781 22.8125C70.2865 23 70.3906 23.224 70.3906 23.4844C70.3906 23.5885 70.3802 23.724 70.3594 23.8906C70.349 24.026 70.3438 24.1406 70.3438 24.2344C70.3438 24.5781 70.4896 24.8698 70.7812 25.1094C71.0625 25.349 71.4479 25.4688 71.9375 25.4688C72.5 25.4688 72.9948 25.375 73.4219 25.1875C73.849 24.9896 74.1823 24.6979 74.4219 24.3125C74.6615 23.9167 74.7812 23.526 74.7812 23.1406C74.7812 22.7656 74.6667 22.3906 74.4375 22.0156C74.2188 21.6406 73.7188 21.0208 72.9375 20.1562C71.8542 18.9479 71.3125 17.7865 71.3125 16.6719C71.3125 15.651 71.724 14.7604 72.5469 14C73.3698 13.2292 74.4167 12.8438 75.6875 12.8438ZM22.3906 61.3125L22.2344 62.2031C21.8594 62.2344 21.5312 62.25 21.25 62.25C20.8438 62.25 20.3542 62.2188 19.7812 62.1562C18.8021 62.0521 18.1823 62 17.9219 62C17.4844 62 16.8125 62.0677 15.9062 62.2031C16.2292 61.3906 16.5 60.5365 16.7188 59.6406C16.875 59.0052 17.0417 57.9115 17.2188 56.3594C16 56.349 14.1094 56.375 11.5469 56.4375C8.90104 60.4792 6.95833 63.0156 5.71875 64.0469C4.48958 65.0885 3.31771 65.6094 2.20312 65.6094C1.61979 65.6094 1.1875 65.4948 0.90625 65.2656C0.614583 65.0469 0.46875 64.7604 0.46875 64.4062C0.46875 64.1354 0.552083 63.9115 0.71875 63.7344C0.885417 63.5573 1.09375 63.4688 1.34375 63.4688C1.48958 63.4688 1.6875 63.4948 1.9375 63.5469C2.5625 63.6927 2.97917 63.7656 3.1875 63.7656C3.88542 63.7656 4.65625 63.3698 5.5 62.5781C6.875 61.2865 8.90625 58.5781 11.5938 54.4531C14.6354 49.7865 17.099 46.3906 18.9844 44.2656C16.4115 44.4948 14.8073 44.7135 14.1719 44.9219C13.2969 45.2031 12.6406 45.6198 12.2031 46.1719C11.7656 46.724 11.5469 47.2865 11.5469 47.8594C11.5469 48.0469 11.6146 48.3125 11.75 48.6562C11.8958 49.0417 11.9688 49.3229 11.9688 49.5C11.9688 49.7292 11.8802 49.9323 11.7031 50.1094C11.526 50.2865 11.3125 50.375 11.0625 50.375C10.7083 50.375 10.4219 50.2448 10.2031 49.9844C9.99479 49.7135 9.89062 49.3125 9.89062 48.7812C9.89062 48.0312 10.0833 47.3073 10.4688 46.6094C10.8646 45.901 11.4271 45.3125 12.1562 44.8438C12.8854 44.3646 13.7969 44 14.8906 43.75C15.4531 43.6146 16.4427 43.4948 17.8594 43.3906C19.0885 43.2865 19.8594 43.1875 20.1719 43.0938C20.6615 42.9583 21.1302 42.6927 21.5781 42.2969C21.2656 43.5781 21.0417 44.6979 20.9062 45.6562L19.6875 54.6875L18.9844 61.1562C19.7552 61.3542 20.4479 61.4531 21.0625 61.4531C21.4688 61.4531 21.9115 61.4062 22.3906 61.3125ZM17.3594 55.2031C17.8594 50.974 18.3594 47.8854 18.8594 45.9375C17.5365 47.6875 16.7188 48.7917 16.4062 49.25L12.3906 55.2031C13.2552 55.2344 14.4896 55.25 16.0938 55.25C16.4896 55.25 16.9115 55.2344 17.3594 55.2031ZM27.5469 62H25.2188L26.3125 57.7969C26.8438 55.7344 27.3073 53.776 27.7031 51.9219C27.7969 51.4635 27.8438 51.1771 27.8438 51.0625C27.8438 50.8125 27.7292 50.6875 27.5 50.6875C27.3438 50.6875 27.1042 50.7969 26.7812 51.0156C26.4583 51.224 25.875 51.75 25.0312 52.5938L24.5469 52.0469C25.5469 50.974 26.5417 50.1719 27.5312 49.6406C28.5312 49.099 29.2969 48.8281 29.8281 48.8281C30.0156 48.8281 30.1615 48.875 30.2656 48.9688C30.3802 49.0521 30.4375 49.1615 30.4375 49.2969C30.4375 49.4323 30.3698 49.7917 30.2344 50.375L29.5625 53.1719C30.6146 51.5156 31.8021 50.099 33.125 48.9219C33.7604 48.3594 34.2917 48.0781 34.7188 48.0781C35.0312 48.0781 35.2917 48.1823 35.5 48.3906C35.7083 48.5885 35.8125 48.8229 35.8125 49.0938C35.8125 49.375 35.7083 49.6146 35.5 49.8125C35.3021 50.0104 34.7969 50.2448 33.9844 50.5156C33.2135 50.776 32.5833 51.0885 32.0938 51.4531C31.6146 51.8177 31.0833 52.375 30.5 53.125C29.9271 53.875 29.526 54.5312 29.2969 55.0938C29.0677 55.6458 28.7188 56.9375 28.25 58.9688L27.5469 62ZM38.625 46.4531L41.1094 45.5L39.9844 49.875H43.2188L42.9688 50.9844H39.7344L38.3594 56.2188C37.9323 57.7917 37.7188 58.8854 37.7188 59.5C37.7188 59.7812 37.776 59.9844 37.8906 60.1094C38.0156 60.2344 38.1823 60.2969 38.3906 60.2969C38.7135 60.2969 39.2083 60.1042 39.875 59.7188C40.75 59.2083 41.5833 58.6302 42.375 57.9844L42.9688 58.7031C40.6875 60.4219 39.1615 61.474 38.3906 61.8594C37.6198 62.2448 37 62.4375 36.5312 62.4375C36.1458 62.4375 35.8385 62.2969 35.6094 62.0156C35.3906 61.7344 35.2812 61.276 35.2812 60.6406C35.2812 59.8906 35.4792 58.7448 35.875 57.2031L37.4844 50.9844H34.9531L35.2344 49.875H37.75L38.625 46.4531ZM51.1562 42.1406C51.4792 42.1406 51.7448 42.25 51.9531 42.4688C52.1615 42.6771 52.2656 42.9479 52.2656 43.2812C52.2656 43.7396 52.1042 44.1458 51.7812 44.5C51.4688 44.8438 51.1146 45.0156 50.7188 45.0156C50.4062 45.0156 50.1458 44.9062 49.9375 44.6875C49.7292 44.4688 49.625 44.1823 49.625 43.8281C49.625 43.3594 49.776 42.9635 50.0781 42.6406C50.3802 42.3073 50.7396 42.1406 51.1562 42.1406ZM45 52.4844L44.3125 51.9531C45.3542 50.8073 46.3021 49.9948 47.1562 49.5156C48.0208 49.026 48.7552 48.7812 49.3594 48.7812C49.6927 48.7812 49.9479 48.8542 50.125 49C50.3021 49.1458 50.3906 49.3438 50.3906 49.5938C50.3906 49.8958 50.0521 51.1771 49.375 53.4375C48.2708 57.1354 47.7188 59.3646 47.7188 60.125C47.7188 60.2708 47.7552 60.3958 47.8281 60.5C47.901 60.5938 47.9792 60.6406 48.0625 60.6406C48.3958 60.6406 49.25 59.9948 50.625 58.7031L51.2344 59.2969C49.8073 60.6406 48.7656 61.5 48.1094 61.875C47.4531 62.25 46.9167 62.4375 46.5 62.4375C46.1354 62.4375 45.8438 62.3229 45.625 62.0938C45.4167 61.8646 45.3125 61.5469 45.3125 61.1406C45.3125 59.8385 46.0938 56.6562 47.6562 51.5938C47.7292 51.3542 47.7656 51.1406 47.7656 50.9531C47.7656 50.7448 47.6719 50.6406 47.4844 50.6406C47.276 50.6406 47.0365 50.724 46.7656 50.8906C46.5052 51.0573 45.9167 51.5885 45 52.4844ZM60.7656 58.6094L61.0938 59.5156C58.6146 61.4635 56.5208 62.4375 54.8125 62.4375C53.9062 62.4375 53.2448 62.1146 52.8281 61.4688C52.4219 60.8229 52.2188 60.0052 52.2188 59.0156C52.2188 57.3698 52.6562 55.6771 53.5312 53.9375C54.4062 52.1979 55.4688 50.8646 56.7188 49.9375C57.6979 49.2188 58.8021 48.8594 60.0312 48.8594C60.8021 48.8594 61.3854 49.0052 61.7812 49.2969C62.1771 49.5885 62.375 49.9427 62.375 50.3594C62.375 50.6823 62.2708 50.9479 62.0625 51.1562C61.8542 51.3542 61.5625 51.4531 61.1875 51.4531C60.8229 51.4531 60.3542 51.2865 59.7812 50.9531C59.1875 50.599 58.6927 50.4219 58.2969 50.4219C57.7865 50.4219 57.276 50.6562 56.7656 51.125C56.2656 51.5833 55.7865 52.4792 55.3281 53.8125C54.8698 55.1458 54.6406 56.4844 54.6406 57.8281C54.6406 58.8177 54.8333 59.5833 55.2188 60.125C55.5 60.5417 55.8958 60.75 56.4062 60.75C57.625 60.75 59.0781 60.0365 60.7656 58.6094ZM69.5625 58.2344L70.0938 58.7969C69.2812 59.7135 68.3177 60.5521 67.2031 61.3125C66.099 62.0625 65.1875 62.4375 64.4688 62.4375C64.1458 62.4375 63.8802 62.3125 63.6719 62.0625C63.4635 61.8229 63.3594 61.4896 63.3594 61.0625C63.3594 60.2292 63.6823 58.5 64.3281 55.875L66.0156 49.0156C66.6302 46.5365 67.1458 44.875 67.5625 44.0312C68.2083 42.75 69.1198 41.7552 70.2969 41.0469C71.4844 40.3385 72.7344 39.9844 74.0469 39.9844C74.4948 39.9844 74.8438 40.0938 75.0938 40.3125C75.3542 40.5208 75.4844 40.776 75.4844 41.0781C75.4844 41.4115 75.3594 41.6875 75.1094 41.9062C74.8594 42.1146 74.4948 42.2188 74.0156 42.2188C73.7031 42.2188 73.2604 42.1667 72.6875 42.0625C72.1875 41.9792 71.724 41.9375 71.2969 41.9375C70.8698 41.9375 70.5469 42.026 70.3281 42.2031C70.026 42.4531 69.75 42.9792 69.5 43.7812C69.2604 44.5833 68.8646 46.1667 68.3125 48.5312L66.7656 55.0781C65.9948 58.3594 65.6094 60.0729 65.6094 60.2188C65.6094 60.5521 65.7292 60.7188 65.9688 60.7188C66.1979 60.7188 66.5312 60.5833 66.9688 60.3125C67.8333 59.7708 68.6979 59.0781 69.5625 58.2344ZM78.9375 58.0781L79.4531 58.7656C76.901 61.1927 74.7135 62.4062 72.8906 62.4062C72.151 62.4062 71.5833 62.1562 71.1875 61.6562C70.8021 61.1562 70.6094 60.3542 70.6094 59.25C70.6094 57.0208 71.2865 54.8021 72.6406 52.5938C74.1615 50.0833 75.9792 48.8281 78.0938 48.8281C78.8333 48.8281 79.3958 49.0156 79.7812 49.3906C80.1771 49.7552 80.375 50.2604 80.375 50.9062C80.375 51.5833 80.1406 52.25 79.6719 52.9062C79.2031 53.5625 78.3646 54.2448 77.1562 54.9531C76.5521 55.2969 75.2604 55.9167 73.2812 56.8125C73.1875 57.375 73.1406 57.9115 73.1406 58.4219C73.1406 59.1615 73.2552 59.6771 73.4844 59.9688C73.724 60.2604 74.0677 60.4062 74.5156 60.4062C74.9427 60.4062 75.4115 60.2865 75.9219 60.0469C76.6094 59.724 77.6146 59.0677 78.9375 58.0781ZM73.4688 55.8125C75.1458 55.0625 76.4062 54.2552 77.25 53.3906C77.8229 52.7865 78.1094 52.1875 78.1094 51.5938C78.1094 51.1458 77.9896 50.7917 77.75 50.5312C77.5208 50.2604 77.2188 50.125 76.8438 50.125C76.4583 50.125 76.0833 50.2708 75.7188 50.5625C75.2292 50.9479 74.8177 51.5312 74.4844 52.3125C74.0052 53.4583 73.6667 54.625 73.4688 55.8125Z" fill="#FFD700"/>
</mask>
<g mask="url(#mask0)">
<rect x="-21" y="-8" width="124" height="89" fill="#D8B600"/>
</g>
</svg>
